<svg width="406" height="193" viewBox="0 0 406 193" fill="none" xmlns="http://www.w3.org/2000/svg">
    <path opacity="0.35" d="M373.439 49.6889C367.998 60.2449 364.669 71.7753 361.827 83.2245C356.224 105.879 352.083 130.402 336.899 148.996C330.159 157.279 320.984 163.694 310.752 166.698C299.709 169.946 288.91 168.484 279.084 162.557C274.212 159.634 269.665 156.223 264.55 153.787C259.84 151.595 254.643 150.377 249.446 150.214C237.997 149.89 226.873 153.868 216.966 159.228C206.086 165.155 196.179 172.707 185.38 178.716C174.58 184.724 162.725 188.784 150.545 190.652C129.108 193.9 104.829 191.058 87.3712 177.254C78.6828 170.352 72.9988 161.176 70.644 150.296C68.0456 138.278 68.1268 125.854 65.6908 113.756C63.336 101.738 59.5196 90.0453 54.4852 78.9209C49.8568 68.7709 44.4164 59.1893 34.916 52.8557C30.2876 49.7701 25.2532 47.3341 20.706 44.0861C16.24 40.9193 12.586 36.8593 9.74405 32.1497C4.38483 23.1365 2.35486 12.5805 1.38046 2.26808C1.29926 1.78088 1.29926 1.37488 1.29926 0.887678L0.162445 0.887678C1.46164 16.2345 4.95325 31.9061 16.646 42.2185C25.3344 49.8513 36.7025 53.1805 44.0104 62.5185C51.6432 72.2625 56.434 84.7673 60.1692 96.4601C64.148 108.884 66.2592 121.551 67.4772 134.462C68.5328 145.748 69.9132 157.198 76.328 166.779C86.9652 182.694 106.697 190.49 125.129 192.276C149.733 194.631 173.281 187.729 193.987 174.737C213.962 162.151 238.809 142.988 263.656 154.274C273.725 158.903 281.764 167.023 293.051 168.809C302.47 170.271 312.133 167.997 320.496 163.612C340.309 153.219 350.053 132.026 355.981 111.482C362.639 88.1777 365.4 63.0869 378.798 42.3809C385.7 31.8249 395.119 22.7305 406 15.8285L406 14.5293C400.884 17.6961 396.094 21.3501 391.709 25.4913C384.32 32.4745 378.067 40.5945 373.439 49.6889Z" fill="white"/>
    <path opacity="0.35" d="M66.5029 33.8547C73.3237 42.6243 77.3837 53.9923 80.7129 64.5483C84.2857 75.8351 86.3157 87.4467 87.3713 99.3019C88.2645 109.614 88.9953 120.333 94.1109 129.59C102.393 144.612 119.283 152.813 135.767 154.924C157.528 157.685 178.721 151.432 196.748 139.415C214.206 127.803 236.454 108.965 258.622 120.17C267.148 124.474 273.969 131.782 283.713 133.406C292.076 134.786 300.684 132.513 307.992 128.29C325.368 118.303 333.407 98.6523 338.36 80.1387C344.044 59.0267 346.318 36.3719 357.524 17.2087C360.934 11.3623 365.156 5.9219 369.947 1.1311L368.404 1.1311C354.519 15.5035 348.023 33.8547 343.476 53.0179C338.685 73.3991 335.437 95.2419 323.014 112.7C317.248 120.82 309.372 127.397 299.872 130.645C290.209 133.974 280.627 132.838 271.939 127.478C267.716 124.799 263.819 121.713 259.353 119.358C255.293 117.247 250.827 116.029 246.198 115.786C236.211 115.298 226.467 118.952 217.941 123.824C208.359 129.346 199.752 136.329 190.252 142.013C180.589 147.778 169.87 151.757 158.746 153.462C139.583 156.386 117.984 153.056 103.205 139.577C95.6537 132.675 91.5125 123.662 89.8073 113.674C87.9397 102.631 87.7773 91.4255 85.5849 80.4635C83.4737 69.5827 80.1445 59.0267 75.7597 48.8767C71.6997 39.6199 66.9901 31.0127 58.4641 25.1663C54.0793 22.1619 49.2885 19.7259 45.1473 16.2343C41.6557 13.3111 38.8949 9.65709 36.7837 5.59709C36.0529 4.13549 35.3221 2.67389 34.7537 1.13109L33.5357 1.13109C35.4845 6.16549 38.2453 10.7939 42.0617 14.8539C49.5321 22.3243 60.0069 25.4911 66.5029 33.8547Z" fill="white"/>
    <path opacity="0.35" d="M84.7724 13.2299C91.0248 21.1063 94.5164 31.4999 97.4396 40.9191C100.444 50.7443 102.312 60.8131 103.205 70.9631C104.017 80.1387 104.423 89.5579 108.402 98.0027C114.816 111.726 129.27 119.764 143.805 122.038C162.237 124.88 180.67 119.764 196.016 109.533C211.12 99.4643 230.364 81.2755 250.014 90.7759C257.728 94.5111 263.575 101.413 272.344 103.037C279.49 104.336 286.798 102.388 293.05 98.8147C308.154 90.0451 315.137 72.7495 319.44 56.6719C324.394 38.1583 326.261 18.3455 335.274 1.1311L334.219 1.1311C329.59 10.2255 326.586 20.1319 324.312 30.2007C320.171 48.4707 317.492 68.1211 306.854 84.1175C301.901 91.5067 295.08 97.6779 286.636 100.682C278.11 103.687 269.746 102.469 262.276 97.5155C255.049 92.7247 248.796 87.5279 239.702 87.2843C231.095 87.0407 222.731 90.4511 215.504 94.8359C207.222 99.8703 199.752 106.204 191.469 111.238C183.024 116.354 173.605 119.764 163.861 121.145C147.215 123.5 128.458 119.927 116.359 107.503C109.701 100.682 106.696 91.9127 105.478 82.6559C104.26 73.2367 103.936 63.8175 102.068 54.4795C100.2 45.2227 97.4396 36.1283 93.7856 27.3587C90.3752 19.2387 86.3152 11.6059 79.0072 6.40909C76.49 4.54149 73.7292 2.99869 71.1308 1.21229L69.3444 1.21229C74.46 5.02869 80.55 8.03309 84.7724 13.2299Z" fill="white"/>
    <path opacity="0.35" d="M121.069 44.086C121.8 52.3684 121.962 60.8944 125.21 68.6896C130.245 80.7072 141.775 88.5024 154.361 90.9384C170.114 93.9428 186.029 89.2332 198.94 80.1388C211.688 71.0444 228.659 53.5052 245.711 63.2492C252.045 66.822 256.836 72.7496 264.387 73.9676C270.558 74.942 276.73 72.912 281.845 69.5828C294.594 61.2192 300.034 45.5476 303.526 31.5C305.962 21.5936 307.504 11.2812 309.94 1.2124L308.885 1.2124C308.398 2.9988 307.992 4.78521 307.586 6.65281C304.094 22.8928 302.064 40.1072 293.7 54.8044C286.392 67.634 270.721 79.1644 256.348 69.664C250.015 65.5228 245.062 60.1636 237.104 59.5952C229.471 59.0268 222.082 62.2748 215.83 66.3348C208.846 70.882 202.594 76.566 195.611 81.1132C188.546 85.7416 180.67 88.9084 172.306 90.2076C157.69 92.4 141.532 88.746 131.625 77.2156C125.941 70.6384 123.83 62.4372 122.937 53.9924C122.044 45.5476 121.638 37.184 120.014 28.8204C118.39 20.4568 116.035 12.2556 112.868 4.298C112.462 3.2424 112.056 2.18679 111.569 1.21239L110.594 1.21239C112.949 6.32799 114.654 11.8496 116.116 17.0464C118.714 25.816 120.338 34.9104 121.069 44.086Z" fill="white"/>
    <path opacity="0.35" d="M142.262 41.3253C145.916 50.9881 154.523 57.7277 164.43 60.0013C177.016 62.9245 190.089 59.1893 200.401 51.7188C210.633 44.3296 224.355 28.9016 238.241 37.3465C243.113 40.3509 246.848 45.0605 252.775 46.1161C257.566 46.9281 262.519 45.3041 266.498 42.7057C276.648 35.9661 281.033 23.2989 283.794 11.9309C284.687 8.35805 285.418 4.70405 286.067 1.05005L285.012 1.05005C283.144 10.7941 281.114 20.6193 276.486 29.4701C270.802 40.2697 258.216 50.5821 246.198 42.0561C241.651 38.8081 237.835 34.7481 231.988 34.0985C225.898 33.3677 219.808 35.9661 214.774 39.2953C209.252 42.9493 204.461 47.5777 199.021 51.3941C193.175 55.5353 186.597 58.3773 179.533 59.5141C167.515 61.3817 154.442 57.8089 146.891 47.8213C142.749 42.2997 141.288 35.6413 140.638 28.9017C139.989 22.162 139.583 15.5036 138.365 8.84524C137.877 6.24684 137.309 3.64844 136.659 1.13124L135.523 1.13124C137.228 7.87084 138.365 14.7728 138.933 21.756C139.664 28.3332 139.907 35.0729 142.262 41.3253Z" fill="white"/>
    <path opacity="0.35" d="M173.849 31.0127C183.269 33.3675 193.256 30.6067 200.97 25.0039C209.009 19.2387 219.646 6.16554 230.689 12.5803C234.749 14.9351 237.591 19.0763 242.545 19.8883C246.199 20.4567 249.934 19.2387 252.938 17.2087C258.46 13.4735 261.789 7.46475 264.062 1.13115L262.926 1.13115C262.357 2.59275 261.789 4.05435 261.058 5.43475C256.673 14.6103 246.605 23.5424 236.779 15.9095C233.288 13.2299 230.365 10.2255 225.736 9.90075C221.351 9.57595 217.129 11.3623 213.556 13.7171C209.171 16.5591 205.436 20.3755 201.214 23.4611C196.829 26.7091 191.795 29.2263 186.354 30.1195C176.61 31.8247 166.054 28.8203 160.289 20.4567C156.96 15.7471 156.148 9.98194 155.661 4.37914C155.579 3.24234 155.498 2.10555 155.417 0.968745L154.361 0.968745C154.686 6.00314 155.011 11.1187 156.797 15.9095C159.558 23.5423 166.135 29.0639 173.849 31.0127Z" fill="white"/>
</svg>
