<!-- <svg xmlns="http://www.w3.org/2000/svg" width="16" height="16" fill="#454545" class="bi bi-arrow-left-circle" viewBox="0 0 16 16">
  <path fill-rule="evenodd" d="M1 8a7 7 0 1 0 14 0A7 7 0 0 0 1 8zm15 0A8 8 0 1 1 0 8a8 8 0 0 1 16 0zm-4.5-.5a.5.5 0 0 1 0 1H5.707l2.147 2.146a.5.5 0 0 1-.708.708l-3-3a.5.5 0 0 1 0-.708l3-3a.5.5 0 1 1 .708.708L5.707 7.5H11.5z"/>
</svg> -->

<svg width="50" height="50" viewBox="0 0 50 50" fill="none" xmlns="http://www.w3.org/2000/svg">
<circle r="24.5" transform="matrix(-1 0 0 1 25 25)" stroke="#C6C6C6"/>
<path d="M12.6464 25.0355C12.4512 24.8403 12.4512 24.5237 12.6464 24.3284L15.8284 21.1464C16.0237 20.9512 16.3403 20.9512 16.5355 21.1464C16.7308 21.3417 16.7308 21.6583 16.5355 21.8536L13.7071 24.682L16.5355 27.5104C16.7308 27.7057 16.7308 28.0223 16.5355 28.2175C16.3403 28.4128 16.0237 28.4128 15.8284 28.2175L12.6464 25.0355ZM38 25.182H13V24.182H38V25.182Z" fill="#C6C6C6"/>
</svg>