<svg width="15" height="15" viewBox="0 0 15 15" fill="none" xmlns="http://www.w3.org/2000/svg">
<path d="M6.37109 12.2443C6.47921 12.3911 6.64546 12.4836 6.82734 12.498C6.84359 12.4993 6.85983 12.4999 6.87546 12.4999C7.04046 12.4999 7.19983 12.4349 7.31733 12.3168L10.9111 8.72303C11.1555 8.47866 11.1555 8.08366 10.9111 7.83929C10.6667 7.59491 10.2717 7.59491 10.0273 7.83929L6.94858 10.918L5.66046 9.16178C5.45609 8.88366 5.06484 8.82303 4.78671 9.02741C4.50859 9.23178 4.44797 9.62303 4.65234 9.90116L6.37109 12.2443Z" fill="#969696"/>
<path d="M13.125 1.875H12.5V0.625C12.5 0.28 12.22 0 11.875 0H11.25C10.905 0 10.625 0.28 10.625 0.625V1.875H4.375V0.625C4.375 0.28 4.095 0 3.75 0H3.125C2.78 0 2.5 0.28 2.5 0.625V1.875H1.875C0.84125 1.875 0 2.71625 0 3.75V13.125C0 14.1588 0.84125 15 1.875 15H13.125C14.1588 15 15 14.1588 15 13.125V3.75C15 2.71625 14.1588 1.875 13.125 1.875ZM13.75 13.125C13.75 13.4694 13.4694 13.75 13.125 13.75H1.875C1.53063 13.75 1.25 13.4694 1.25 13.125V6.275H13.75V13.125Z" fill="#969696"/>
</svg>
