<svg width="15" height="15" viewBox="0 0 15 15" fill="none" xmlns="http://www.w3.org/2000/svg">
<path d="M7.48976 7.38397C9.32993 7.38397 10.8269 5.7277 10.8269 3.69191C10.8269 1.65612 9.32978 0 7.48976 0C5.64959 0 4.15234 1.65628 4.15234 3.69191C4.15234 5.72785 5.64959 7.38397 7.48976 7.38397Z" fill="#969696"/>
<path d="M11.3335 6.89959C11.139 6.85753 10.9389 6.94213 10.8344 7.11148C9.64051 9.04562 7.71559 9.10145 7.50011 9.10145C7.28463 9.10145 5.35987 9.04562 4.16629 7.1121C4.06152 6.94244 3.8609 6.85753 3.66622 6.90037C1.07422 7.47097 0.390724 11.3835 0.592754 14.5605C0.608548 14.8076 0.813393 15.0001 1.06093 15.0001H13.9396C14.1871 15.0001 14.3921 14.8077 14.4076 14.5605C14.6098 11.3799 13.9262 7.46519 11.3335 6.89959Z" fill="#969696"/>
</svg>
