<svg width="91" height="18" viewBox="0 0 91 18" fill="none" xmlns="http://www.w3.org/2000/svg">
<path d="M90.7231 6.83507C90.6585 6.63491 90.4866 6.48904 90.2797 6.45882L84.4671 5.60878L81.8676 0.308139C81.7751 0.119445 81.5841 0 81.375 0C81.1659 0 80.975 0.119445 80.8824 0.308139L78.2828 5.60878L72.4703 6.45882C72.2634 6.48904 72.0915 6.63491 72.0269 6.83503C71.9623 7.03519 72.0162 7.25488 72.1659 7.40174L76.3718 11.5277L75.379 17.3538C75.3437 17.5612 75.4284 17.7707 75.5976 17.8944C75.6933 17.9644 75.8066 18 75.9205 18C76.0079 18 76.0957 17.979 76.176 17.9365L81.375 15.1858L86.5737 17.9365C86.7589 18.0344 86.9831 18.0181 87.1522 17.8944C87.3214 17.7707 87.4062 17.5611 87.3708 17.3537L86.3778 11.5277L90.5841 7.4017C90.7338 7.25488 90.7877 7.03519 90.7231 6.83507Z" fill="#FFD600"/>
<path d="M66.7231 6.83507C66.6585 6.63491 66.4866 6.48904 66.2797 6.45882L60.4671 5.60878L57.8676 0.308139C57.7751 0.119445 57.5841 0 57.375 0C57.1659 0 56.975 0.119445 56.8824 0.308139L54.2828 5.60878L48.4703 6.45882C48.2634 6.48904 48.0915 6.63491 48.0269 6.83503C47.9623 7.03519 48.0162 7.25488 48.1659 7.40174L52.3718 11.5277L51.379 17.3538C51.3437 17.5612 51.4284 17.7707 51.5976 17.8944C51.6933 17.9644 51.8066 18 51.9205 18C52.0079 18 52.0957 17.979 52.176 17.9365L57.375 15.1858L62.5737 17.9365C62.7589 18.0344 62.9831 18.0181 63.1522 17.8944C63.3214 17.7707 63.4062 17.5611 63.3708 17.3537L62.3778 11.5277L66.5841 7.4017C66.7338 7.25488 66.7877 7.03519 66.7231 6.83507Z" fill="#FFD600"/>
<path d="M42.7231 6.83507C42.6585 6.63491 42.4866 6.48904 42.2797 6.45882L36.4671 5.60878L33.8676 0.308139C33.7751 0.119445 33.5841 0 33.375 0C33.1659 0 32.975 0.119445 32.8824 0.308139L30.2828 5.60878L24.4703 6.45882C24.2634 6.48904 24.0915 6.63491 24.0269 6.83503C23.9623 7.03519 24.0162 7.25488 24.1659 7.40174L28.3718 11.5277L27.379 17.3538C27.3437 17.5612 27.4284 17.7707 27.5976 17.8944C27.6933 17.9644 27.8066 18 27.9205 18C28.0079 18 28.0957 17.979 28.176 17.9365L33.375 15.1858L38.5737 17.9365C38.7589 18.0344 38.9831 18.0181 39.1522 17.8944C39.3214 17.7707 39.4062 17.5611 39.3708 17.3537L38.3778 11.5277L42.5841 7.4017C42.7338 7.25488 42.7877 7.03519 42.7231 6.83507Z" fill="#FFD600"/>
<path d="M18.7231 6.83507C18.6585 6.63491 18.4866 6.48904 18.2797 6.45882L12.4671 5.60878L9.86758 0.308139C9.77508 0.119445 9.5841 0 9.37503 0C9.16592 0 8.97498 0.119445 8.88244 0.308139L6.28279 5.60878L0.470318 6.45882C0.263446 6.48904 0.0915109 6.63491 0.0269116 6.83503C-0.0377244 7.03519 0.0161816 7.25488 0.165925 7.40174L4.37177 11.5277L3.37905 17.3538C3.34367 17.5612 3.42841 17.7707 3.59756 17.8944C3.69325 17.9644 3.8066 18 3.92049 18C4.00794 18 4.09568 17.979 4.17603 17.9365L9.37499 15.1858L14.5737 17.9365C14.7589 18.0344 14.9831 18.0181 15.1522 17.8944C15.3214 17.7707 15.4062 17.5611 15.3708 17.3537L14.3778 11.5277L18.5841 7.4017C18.7338 7.25488 18.7877 7.03519 18.7231 6.83507Z" fill="#FFD600"/>
</svg>
