<svg width="113" height="18" viewBox="0 0 113 18" fill="none" xmlns="http://www.w3.org/2000/svg">
<path d="M112.468 6.83507C112.405 6.63491 112.237 6.48904 112.035 6.45882L106.348 5.60878L103.805 0.308139C103.715 0.119445 103.528 0 103.324 0C103.119 0 102.932 0.119445 102.842 0.308139L100.299 5.60878L94.6124 6.45882C94.4101 6.48904 94.2419 6.63491 94.1787 6.83503C94.1154 7.03519 94.1682 7.25488 94.3147 7.40174L98.4291 11.5277L97.4579 17.3538C97.4233 17.5612 97.5062 17.7707 97.6717 17.8944C97.7653 17.9644 97.8762 18 97.9876 18C98.0732 18 98.159 17.979 98.2376 17.9365L103.324 15.1858L108.409 17.9365C108.59 18.0344 108.81 18.0181 108.975 17.8944C109.141 17.7707 109.224 17.5611 109.189 17.3537L108.218 11.5277L112.332 7.4017C112.479 7.25488 112.532 7.03519 112.468 6.83507Z" fill="#FFD600"/>
<path d="M88.9899 6.83507C88.9267 6.63491 88.7586 6.48904 88.5561 6.45882L82.8699 5.60878L80.3269 0.308139C80.2364 0.119445 80.0496 0 79.8451 0C79.6405 0 79.4537 0.119445 79.3632 0.308139L76.82 5.60878L71.1339 6.45882C70.9315 6.48904 70.7633 6.63491 70.7002 6.83503C70.6369 7.03519 70.6897 7.25488 70.8361 7.40174L74.9506 11.5277L73.9794 17.3538C73.9448 17.5612 74.0277 17.7707 74.1932 17.8944C74.2868 17.9644 74.3977 18 74.5091 18C74.5946 18 74.6805 17.979 74.7591 17.9365L79.845 15.1858L84.9307 17.9365C85.1118 18.0344 85.3312 18.0181 85.4967 17.8944C85.6621 17.7707 85.7451 17.5611 85.7105 17.3537L84.739 11.5277L88.8539 7.4017C89.0004 7.25488 89.0531 7.03519 88.9899 6.83507Z" fill="#FFD600"/>
<path d="M65.5119 6.83507C65.4487 6.63491 65.2805 6.48904 65.0781 6.45882L59.3919 5.60878L56.8489 0.308139C56.7584 0.119445 56.5715 0 56.367 0C56.1625 0 55.9757 0.119445 55.8851 0.308139L53.342 5.60878L47.6559 6.45882C47.4535 6.48904 47.2853 6.63491 47.2221 6.83503C47.1589 7.03519 47.2116 7.25488 47.3581 7.40174L51.4725 11.5277L50.5014 17.3538C50.4668 17.5612 50.5497 17.7707 50.7152 17.8944C50.8088 17.9644 50.9196 18 51.0311 18C51.1166 18 51.2024 17.979 51.281 17.9365L56.367 15.1858L61.4527 17.9365C61.6338 18.0344 61.8532 18.0181 62.0186 17.8944C62.1841 17.7707 62.2671 17.5611 62.2325 17.3537L61.261 11.5277L65.3759 7.4017C65.5223 7.25488 65.5751 7.03519 65.5119 6.83507Z" fill="#FFD600"/>
<path d="M42.0333 6.83507C41.9701 6.63491 41.802 6.48904 41.5996 6.45882L35.9134 5.60878L33.3704 0.308139C33.2799 0.119445 33.093 0 32.8885 0C32.684 0 32.4972 0.119445 32.4066 0.308139L29.8635 5.60878L24.1774 6.45882C23.975 6.48904 23.8068 6.63491 23.7436 6.83503C23.6804 7.03519 23.7331 7.25488 23.8796 7.40174L27.994 11.5277L27.0229 17.3538C26.9883 17.5612 27.0712 17.7707 27.2366 17.8944C27.3303 17.9644 27.4411 18 27.5525 18C27.6381 18 27.7239 17.979 27.8025 17.9365L32.8885 15.1858L37.9742 17.9365C38.1553 18.0344 38.3747 18.0181 38.5401 17.8944C38.7056 17.7707 38.7885 17.5611 38.754 17.3537L37.7825 11.5277L41.8974 7.4017C42.0438 7.25488 42.0966 7.03519 42.0333 6.83507Z" fill="#FFD600"/>
<path d="M18.5553 6.83507C18.4921 6.63491 18.324 6.48904 18.1216 6.45882L12.4354 5.60878L9.89233 0.308139C9.80183 0.119445 9.61501 0 9.41048 0C9.20592 0 9.01913 0.119445 8.9286 0.308139L6.38547 5.60878L0.699351 6.45882C0.496977 6.48904 0.328779 6.63491 0.265584 6.83503C0.202354 7.03519 0.255088 7.25488 0.401575 7.40174L4.51599 11.5277L3.54485 17.3538C3.51024 17.5612 3.59314 17.7707 3.75861 17.8944C3.85222 17.9644 3.9631 18 4.07452 18C4.16007 18 4.2459 17.979 4.3245 17.9365L9.41045 15.1858L14.4962 17.9365C14.6773 18.0344 14.8966 18.0181 15.0621 17.8944C15.2276 17.7707 15.3105 17.5611 15.2759 17.3537L14.3045 11.5277L18.4194 7.4017C18.5658 7.25488 18.6186 7.03519 18.5553 6.83507Z" fill="#FFD600"/>
</svg>
